<?xml version="1.0" encoding="UTF-8"?>
<!DOCTYPE svg PUBLIC "-//W3C//DTD SVG 1.1//EN" "http://www.w3.org/Graphics/SVG/1.1/DTD/svg11.dtd">
<svg xmlns="http://www.w3.org/2000/svg" version="1.1" width="1000px" height="1000px" style="shape-rendering:geometricPrecision; text-rendering:geometricPrecision; image-rendering:optimizeQuality; fill-rule:evenodd; clip-rule:evenodd" xmlns:xlink="http://www.w3.org/1999/xlink">
<g><path style="opacity:0.998" fill="#defd00" d="M 468.5,-0.5 C 489.167,-0.5 509.833,-0.5 530.5,-0.5C 670.235,10.4519 786.402,68.1186 879,172.5C 950.89,257.949 991.057,356.616 999.5,468.5C 999.5,489.167 999.5,509.833 999.5,530.5C 984.725,698.286 907.725,828.786 768.5,922C 695.675,967.775 616.342,993.608 530.5,999.5C 509.833,999.5 489.167,999.5 468.5,999.5C 312.564,986.466 187.731,917.8 94,793.5C 38.2398,715.063 6.7398,627.73 -0.5,531.5C -0.5,510.167 -0.5,488.833 -0.5,467.5C 13.6133,308.721 84.6133,182.554 212.5,89C 289.556,35.813 374.89,5.97962 468.5,-0.5 Z"/></g>
<g><path style="opacity:1" fill="#1e2200" d="M 736.5,276.5 C 736.5,276.833 736.5,277.167 736.5,277.5C 691.428,277.172 646.428,277.506 601.5,278.5C 646.154,276.505 691.154,275.838 736.5,276.5 Z"/></g>
<g><path style="opacity:1" fill="#000000" d="M 490.5,511.5 C 490.5,534.833 490.5,558.167 490.5,581.5C 500.015,581.827 509.348,581.494 518.5,580.5C 518.333,557.164 518.5,533.831 519,510.5C 546.238,433.034 573.738,355.701 601.5,278.5C 646.428,277.506 691.428,277.172 736.5,277.5C 736.5,414.167 736.5,550.833 736.5,687.5C 706.5,687.5 676.5,687.5 646.5,687.5C 646.333,618.499 646.5,549.499 647,480.5C 658.939,442.183 670.773,403.85 682.5,365.5C 675.09,363.308 667.757,360.808 660.5,358C 658.888,357.28 657.388,357.446 656,358.5C 616.864,468.077 578.03,577.743 539.5,687.5C 516.092,687.823 492.758,687.489 469.5,686.5C 431.041,577.126 392.375,467.793 353.5,358.5C 351.926,357.369 350.259,357.202 348.5,358C 342.909,360.197 337.242,362.197 331.5,364C 329.522,364.481 328.189,365.647 327.5,367.5C 339.376,405.792 351.042,444.125 362.5,482.5C 362.5,550.833 362.5,619.167 362.5,687.5C 332.5,687.5 302.5,687.5 272.5,687.5C 272.5,550.5 272.5,413.5 272.5,276.5C 317.739,276.17 362.905,276.503 408,277.5C 435.8,355.425 463.3,433.425 490.5,511.5 Z"/></g>
<g><path style="opacity:1" fill="#627000" d="M 490.5,511.5 C 491.498,534.327 491.831,557.327 491.5,580.5C 500.5,580.5 509.5,580.5 518.5,580.5C 509.348,581.494 500.015,581.827 490.5,581.5C 490.5,558.167 490.5,534.833 490.5,511.5 Z"/></g>
<g><path style="opacity:1" fill="#96aa00" d="M 362.5,482.5 C 363.499,550.998 363.833,619.665 363.5,688.5C 332.995,688.831 302.662,688.498 272.5,687.5C 302.5,687.5 332.5,687.5 362.5,687.5C 362.5,619.167 362.5,550.833 362.5,482.5 Z"/></g>
<g><path style="opacity:1" fill="#b2cb00" d="M 469.5,686.5 C 492.758,687.489 516.092,687.823 539.5,687.5C 528.005,688.167 516.338,688.5 504.5,688.5C 492.48,688.499 480.814,687.832 469.5,686.5 Z"/></g>
<g><path style="opacity:1" fill="#93a700" d="M 736.5,276.5 C 737.5,413.666 737.833,550.999 737.5,688.5C 706.995,688.831 676.662,688.498 646.5,687.5C 676.5,687.5 706.5,687.5 736.5,687.5C 736.5,550.833 736.5,414.167 736.5,277.5C 736.5,277.167 736.5,276.833 736.5,276.5 Z"/></g>
</svg>
