<?xml version="1.0" encoding="UTF-8"?>
<!DOCTYPE svg PUBLIC "-//W3C//DTD SVG 1.1//EN" "http://www.w3.org/Graphics/SVG/1.1/DTD/svg11.dtd">
<svg xmlns="http://www.w3.org/2000/svg" version="1.1" width="400px" height="400px" style="shape-rendering:geometricPrecision; text-rendering:geometricPrecision; image-rendering:optimizeQuality; fill-rule:evenodd; clip-rule:evenodd" xmlns:xlink="http://www.w3.org/1999/xlink">
<g><path style="opacity:1" fill="#fbfd52" d="M -0.5,-0.5 C 132.833,-0.5 266.167,-0.5 399.5,-0.5C 399.5,132.833 399.5,266.167 399.5,399.5C 266.167,399.5 132.833,399.5 -0.5,399.5C -0.5,266.167 -0.5,132.833 -0.5,-0.5 Z"/></g>
<g><path style="opacity:1" fill="#010102" d="M 299.5,167.5 C 299.5,168.5 299.5,169.5 299.5,170.5C 288.5,170.5 277.5,170.5 266.5,170.5C 264.437,164.034 261.104,158.368 256.5,153.5C 250.624,145.615 243.291,139.615 234.5,135.5C 223.32,128.997 211.153,125.997 198,126.5C 185.76,125.976 174.593,128.976 164.5,135.5C 153.601,141.065 144.934,149.065 138.5,159.5C 136.684,161.118 135.351,163.118 134.5,165.5C 119.067,200.402 125.4,230.902 153.5,257C 156.892,259.694 160.559,261.86 164.5,263.5C 178.275,272.052 193.275,274.885 209.5,272C 211.708,271.809 213.708,271.309 215.5,270.5C 238.946,265.387 255.946,252.054 266.5,230.5C 276.886,230.191 287.219,230.524 297.5,231.5C 298.666,252.826 298.833,274.159 298,295.5C 296.981,296.687 295.814,297.687 294.5,298.5C 230.951,298.654 167.284,298.488 103.5,298C 102.667,297.167 101.833,296.333 101,295.5C 100.333,231.5 100.333,167.5 101,103.5C 102.019,102.313 103.186,101.313 104.5,100.5C 167.833,100.5 231.167,100.5 294.5,100.5C 295.814,101.313 296.981,102.313 298,103.5C 298.168,125.004 298.668,146.337 299.5,167.5 Z"/></g>
<g><path style="opacity:1" fill="#0c0a00" d="M 299.5,99.5 C 299.5,122.167 299.5,144.833 299.5,167.5C 298.668,146.337 298.168,125.004 298,103.5C 296.981,102.313 295.814,101.313 294.5,100.5C 231.167,100.5 167.833,100.5 104.5,100.5C 103.186,101.313 102.019,102.313 101,103.5C 100.333,167.5 100.333,231.5 101,295.5C 101.833,296.333 102.667,297.167 103.5,298C 167.284,298.488 230.951,298.654 294.5,298.5C 295.814,297.687 296.981,296.687 298,295.5C 298.833,274.159 298.666,252.826 297.5,231.5C 287.219,230.524 276.886,230.191 266.5,230.5C 277.321,229.505 288.321,229.172 299.5,229.5C 299.5,252.833 299.5,276.167 299.5,299.5C 232.833,299.5 166.167,299.5 99.5,299.5C 99.5,232.833 99.5,166.167 99.5,99.5C 166.167,99.5 232.833,99.5 299.5,99.5 Z"/></g>
<g><path style="opacity:1" fill="#f4f882" d="M 299.5,99.5 C 300.372,123.037 300.872,146.704 301,170.5C 300.5,171 300,171.5 299.5,172C 294,172.167 288.5,172.333 283,172.5C 277.124,172.495 271.624,171.829 266.5,170.5C 277.5,170.5 288.5,170.5 299.5,170.5C 299.5,169.5 299.5,168.5 299.5,167.5C 299.5,144.833 299.5,122.167 299.5,99.5 Z"/></g>
<g><path style="opacity:1" fill="#ecee70" d="M 234.5,135.5 C 223.136,131.494 211.469,129.161 199.5,128.5C 195.167,128.667 190.833,128.833 186.5,129C 178.852,130.337 171.519,132.504 164.5,135.5C 174.593,128.976 185.76,125.976 198,126.5C 211.153,125.997 223.32,128.997 234.5,135.5 Z"/></g>
<g><path style="opacity:1" fill="#ebed6f" d="M 164.5,135.5 C 164.5,136.833 164.5,138.167 164.5,139.5C 163.127,139.343 161.793,139.51 160.5,140C 152.079,145.253 144.746,151.753 138.5,159.5C 144.934,149.065 153.601,141.065 164.5,135.5 Z"/></g>
<g><path style="opacity:1" fill="#e3e56e" d="M 256.5,153.5 C 261.104,158.368 264.437,164.034 266.5,170.5C 264.204,168.599 262.371,166.266 261,163.5C 259.202,160.242 257.702,156.909 256.5,153.5 Z"/></g>
<g><path style="opacity:1" fill="#ecee69" d="M 134.5,165.5 C 132.963,171.578 131.13,177.578 129,183.5C 128,192.821 127.667,202.155 128,211.5C 131.906,218.806 134.739,226.472 136.5,234.5C 138.39,234.297 139.89,234.963 141,236.5C 141.735,238.871 142.568,241.205 143.5,243.5C 144.274,244.711 145.107,244.711 146,243.5C 146.973,245.392 147.64,247.392 148,249.5C 152.006,251.918 155.506,254.918 158.5,258.5C 161.72,258.78 163.72,260.447 164.5,263.5C 160.559,261.86 156.892,259.694 153.5,257C 125.4,230.902 119.067,200.402 134.5,165.5 Z"/></g>
<g><path style="opacity:1" fill="#eaec6e" d="M 164.5,263.5 C 170.615,265.393 176.615,267.559 182.5,270C 193.495,270.5 204.495,270.667 215.5,270.5C 213.708,271.309 211.708,271.809 209.5,272C 193.275,274.885 178.275,272.052 164.5,263.5 Z"/></g>
</svg>
