<?xml version="1.0" encoding="UTF-8"?>
<!DOCTYPE svg PUBLIC "-//W3C//DTD SVG 1.1//EN" "http://www.w3.org/Graphics/SVG/1.1/DTD/svg11.dtd">
<svg xmlns="http://www.w3.org/2000/svg" version="1.1" width="100px" height="100px" style="shape-rendering:geometricPrecision; text-rendering:geometricPrecision; image-rendering:optimizeQuality; fill-rule:evenodd; clip-rule:evenodd" xmlns:xlink="http://www.w3.org/1999/xlink">
<g><path style="opacity:0.827" fill="#f9f9f9" d="M 38.5,-0.5 C 45.8333,-0.5 53.1667,-0.5 60.5,-0.5C 80.5,5.5 93.5,18.5 99.5,38.5C 99.5,45.8333 99.5,53.1667 99.5,60.5C 93.5,80.5 80.5,93.5 60.5,99.5C 53.1667,99.5 45.8333,99.5 38.5,99.5C 18.5,93.5 5.5,80.5 -0.5,60.5C -0.5,53.1667 -0.5,45.8333 -0.5,38.5C 5.5,18.5 18.5,5.5 38.5,-0.5 Z"/></g>
<g><path style="opacity:1" fill="#060505" d="M 43.5,1.5 C 64.9739,0.514368 81.1406,9.18103 92,27.5C 100.731,46.402 98.7309,64.0686 86,80.5C 64.9929,100.903 42.4929,102.737 18.5,86C -1.9034,64.9929 -3.73673,42.4929 13,18.5C 21.4371,9.52627 31.6038,3.85961 43.5,1.5 Z"/></g>
<g><path style="opacity:1" fill="#f8f8f8" d="M 58.5,16.5 C 60.5,16.5 62.5,16.5 64.5,16.5C 64.1826,19.5719 64.5159,22.5719 65.5,25.5C 68.973,27.1397 71.6397,29.6397 73.5,33C 76.4816,33.498 79.4816,33.6646 82.5,33.5C 82.5,35.8333 82.5,38.1667 82.5,40.5C 79.4816,40.3354 76.4816,40.502 73.5,41C 69.6052,46.9023 64.9385,52.2357 59.5,57C 54.2455,59.3021 49.2455,58.9688 44.5,56C 41.6736,53.1359 42.1736,50.9692 46,49.5C 49.1908,52.5102 52.6908,53.0102 56.5,51C 61.1453,47.1988 64.812,42.6988 67.5,37.5C 65.8482,31.4297 62.1815,29.9297 56.5,33C 54.4783,36.5344 51.4783,38.0344 47.5,37.5C 48.3316,30.998 51.9983,26.998 58.5,25.5C 58.5,22.5 58.5,19.5 58.5,16.5 Z"/></g>
<g><path style="opacity:1" fill="#f6f6f5" d="M 42.5,39.5 C 47.2416,39.1364 51.4083,40.4698 55,43.5C 55.6667,45.1667 55.6667,46.8333 55,48.5C 54.4387,49.0219 53.772,49.3552 53,49.5C 49.4796,46.3944 45.6463,45.8944 41.5,48C 37.9636,51.2012 34.7969,54.7012 32,58.5C 30.6714,64.8342 33.1714,67.6675 39.5,67C 42.3442,64.8192 45.1776,62.6525 48,60.5C 50.7235,61.2084 51.7235,62.8751 51,65.5C 48.2727,68.7306 45.106,71.3972 41.5,73.5C 40.5159,76.4281 40.1826,79.4281 40.5,82.5C 38.1667,82.5 35.8333,82.5 33.5,82.5C 33.6646,79.4816 33.498,76.4816 33,73.5C 29.6397,71.6397 27.1397,68.973 25.5,65.5C 22.5719,64.5159 19.5719,64.1826 16.5,64.5C 16.5,62.5 16.5,60.5 16.5,58.5C 19.5,58.5 22.5,58.5 25.5,58.5C 25.4914,56.6916 25.9914,55.0249 27,53.5C 31.7645,48.2277 36.9312,43.5611 42.5,39.5 Z"/></g>
</svg>
