<?xml version="1.0" encoding="UTF-8"?>
<!DOCTYPE svg PUBLIC "-//W3C//DTD SVG 1.1//EN" "http://www.w3.org/Graphics/SVG/1.1/DTD/svg11.dtd">
<svg xmlns="http://www.w3.org/2000/svg" version="1.1" width="109px" height="109px" style="shape-rendering:geometricPrecision; text-rendering:geometricPrecision; image-rendering:optimizeQuality; fill-rule:evenodd; clip-rule:evenodd" xmlns:xlink="http://www.w3.org/1999/xlink">
<g><path style="opacity:0.988" fill="#fefefe" d="M 26.5,-0.5 C 47.1667,-0.5 67.8333,-0.5 88.5,-0.5C 96.0875,4.41789 102.754,10.4179 108.5,17.5C 108.5,44.1667 108.5,70.8333 108.5,97.5C 105.167,101.5 101.5,105.167 97.5,108.5C 70.8333,108.5 44.1667,108.5 17.5,108.5C 10.4179,102.754 4.41789,96.0875 -0.5,88.5C -0.5,67.8333 -0.5,47.1667 -0.5,26.5C 6.16667,15.1667 15.1667,6.16667 26.5,-0.5 Z"/></g>
<g><path style="opacity:1" fill="#bc3796" d="M 39.5,32.5 C 39.5,35.8333 39.5,39.1667 39.5,42.5C 38.751,40.0295 37.251,38.0295 35,36.5C 35.1449,33.0767 33.6449,31.0767 30.5,30.5C 30.6107,29.8826 30.944,29.3826 31.5,29C 35.5058,27.5793 38.1724,28.746 39.5,32.5 Z"/></g>
<g><path style="opacity:1" fill="#feb22f" d="M 84.5,63.5 C 84.8226,59.774 84.4892,56.1073 83.5,52.5C 80.997,49.4983 78.997,46.1649 77.5,42.5C 77.0431,41.7025 76.3764,41.3691 75.5,41.5C 75.3347,37.8183 75.5014,34.1516 76,30.5C 79.4719,27.582 82.4719,27.9154 85,31.5C 85.8255,42.3414 85.6588,53.008 84.5,63.5 Z"/></g>
<g><path style="opacity:1" fill="#fa6a58" d="M 62.5,49.5 C 57.4058,44.6451 54.4058,38.6451 53.5,31.5C 53.6848,29.1104 55.0182,28.1104 57.5,28.5C 59.374,28.3898 60.874,29.0564 62,30.5C 62.4995,36.8246 62.6662,43.1579 62.5,49.5 Z"/></g>
<g><path style="opacity:1" fill="#9333bc" d="M 30.5,30.5 C 33.6449,31.0767 35.1449,33.0767 35,36.5C 37.251,38.0295 38.751,40.0295 39.5,42.5C 39.5,47.1667 39.5,51.8333 39.5,56.5C 36.6971,50.8941 33.8637,45.2274 31,39.5C 30.5026,42.146 30.3359,44.8127 30.5,47.5C 30.5,59.5 30.5,71.5 30.5,83.5C 29.1757,65.9311 29.1757,48.2645 30.5,30.5 Z"/></g>
<g><path style="opacity:1" fill="#f5536c" d="M 53.5,31.5 C 54.4058,38.6451 57.4058,44.6451 62.5,49.5C 62.6658,54.1785 62.4992,58.8452 62,63.5C 61.2917,64.3805 60.4584,65.0472 59.5,65.5C 57.4381,60.376 55.1047,55.376 52.5,50.5C 52.1765,43.9779 52.5098,37.6446 53.5,31.5 Z"/></g>
<g><path style="opacity:1" fill="#fc9035" d="M 75.5,41.5 C 76.3764,41.3691 77.0431,41.7025 77.5,42.5C 78.997,46.1649 80.997,49.4983 83.5,52.5C 84.4892,56.1073 84.8226,59.774 84.5,63.5C 81.6126,67.4497 78.7793,67.4497 76,63.5C 75.5003,56.1742 75.3337,48.8409 75.5,41.5 Z"/></g>
<g><path style="opacity:1" fill="#7113c4" d="M 39.5,56.5 C 39.5,59.1667 39.5,61.8333 39.5,64.5C 35.7012,59.2347 32.7012,53.568 30.5,47.5C 30.3359,44.8127 30.5026,42.146 31,39.5C 33.8637,45.2274 36.6971,50.8941 39.5,56.5 Z"/></g>
<g><path style="opacity:1" fill="#4b04de" d="M 30.5,47.5 C 32.7012,53.568 35.7012,59.2347 39.5,64.5C 39.5,68.8333 39.5,73.1667 39.5,77.5C 42.8333,77.5 46.1667,77.5 49.5,77.5C 50.3234,80.4606 50.99,83.4606 51.5,86.5C 44.825,86.6663 38.1583,86.4996 31.5,86C 30.7476,85.3292 30.4142,84.4959 30.5,83.5C 30.5,71.5 30.5,59.5 30.5,47.5 Z"/></g>
<g><path style="opacity:1" fill="#d74486" d="M 52.5,50.5 C 55.1047,55.376 57.4381,60.376 59.5,65.5C 56.6916,67.1671 54.525,66.5005 53,63.5C 52.501,59.1794 52.3343,54.8461 52.5,50.5 Z"/></g>
<g><path style="opacity:1" fill="#dfc2eb" d="M 39.5,32.5 C 40.496,46.9905 40.8293,61.6572 40.5,76.5C 48.6841,76.1743 56.6841,76.5076 64.5,77.5C 63.1667,77.5 61.8333,77.5 60.5,77.5C 58.1667,77.5 55.8333,77.5 53.5,77.5C 52.1667,77.5 50.8333,77.5 49.5,77.5C 46.1667,77.5 42.8333,77.5 39.5,77.5C 39.5,73.1667 39.5,68.8333 39.5,64.5C 39.5,61.8333 39.5,59.1667 39.5,56.5C 39.5,51.8333 39.5,47.1667 39.5,42.5C 39.5,39.1667 39.5,35.8333 39.5,32.5 Z"/></g>
<g><path style="opacity:1" fill="#cd438e" d="M 60.5,77.5 C 61.8333,77.5 63.1667,77.5 64.5,77.5C 68.7022,78.9518 69.5355,81.6185 67,85.5C 66.3292,86.2524 65.4959,86.5858 64.5,86.5C 63.4242,83.3516 62.0909,80.3516 60.5,77.5 Z"/></g>
<g><path style="opacity:1" fill="#801abb" d="M 49.5,77.5 C 50.8333,77.5 52.1667,77.5 53.5,77.5C 55.1385,80.483 56.8052,83.483 58.5,86.5C 56.1667,86.5 53.8333,86.5 51.5,86.5C 50.99,83.4606 50.3234,80.4606 49.5,77.5 Z"/></g>
<g><path style="opacity:1" fill="#a72ba2" d="M 53.5,77.5 C 55.8333,77.5 58.1667,77.5 60.5,77.5C 62.0909,80.3516 63.4242,83.3516 64.5,86.5C 62.5,86.5 60.5,86.5 58.5,86.5C 56.8052,83.483 55.1385,80.483 53.5,77.5 Z"/></g>
</svg>
